<?xml version="1.0" encoding="UTF-8"?>
<svg xmlns="http://www.w3.org/2000/svg" xmlns:xlink="http://www.w3.org/1999/xlink" width="20px" height="20px" viewBox="0 0 20 20" version="1.1">
<g id="surface1">
<path style="fill-rule:nonzero;fill:rgb(100%,100%,100%);fill-opacity:1;stroke-width:1;stroke-linecap:butt;stroke-linejoin:miter;stroke:rgb(100%,100%,100%);stroke-opacity:1;stroke-miterlimit:4;" d="M 12.002749 29.252873 L 2.747125 29.252873 L 2.747125 19.997249 C 2.747125 19.584249 2.41525 19.252374 2.00225 19.252374 C 1.58925 19.252374 1.25 19.584249 1.25 19.997249 L 1.25 29.997748 C 1.25 30.410748 1.58925 30.749998 2.00225 30.749998 L 12.002749 30.749998 C 12.415749 30.749998 12.747624 30.410748 12.747624 29.997748 C 12.747624 29.584748 12.415749 29.252873 12.002749 29.252873 Z M 29.997748 19.252374 C 29.584748 19.252374 29.252873 19.584249 29.252873 19.997249 L 29.252873 29.252873 L 19.997249 29.252873 C 19.584249 29.252873 19.252374 29.584748 19.252374 29.997748 C 19.252374 30.410748 19.584249 30.749998 19.997249 30.749998 L 29.997748 30.749998 C 30.410748 30.749998 30.749998 30.410748 30.749998 29.997748 L 30.749998 19.997249 C 30.749998 19.584249 30.410748 19.252374 29.997748 19.252374 Z M 12.002749 1.25 L 2.00225 1.25 C 1.58925 1.25 1.25 1.58925 1.25 2.00225 L 1.25 12.002749 C 1.25 12.415749 1.58925 12.747624 2.00225 12.747624 C 2.41525 12.747624 2.747125 12.415749 2.747125 12.002749 L 2.747125 2.747125 L 12.002749 2.747125 C 12.415749 2.747125 12.747624 2.41525 12.747624 2.00225 C 12.747624 1.58925 12.415749 1.25 12.002749 1.25 Z M 29.997748 1.25 L 19.997249 1.25 C 19.584249 1.25 19.252374 1.58925 19.252374 2.00225 C 19.252374 2.41525 19.584249 2.747125 19.997249 2.747125 L 29.252873 2.747125 L 29.252873 12.002749 C 29.252873 12.415749 29.584748 12.747624 29.997748 12.747624 C 30.410748 12.747624 30.749998 12.415749 30.749998 12.002749 L 30.749998 2.00225 C 30.749998 1.58925 30.410748 1.25 29.997748 1.25 Z M 29.997748 1.25 " transform="matrix(0.529661,0,0,0.529661,1.525424,1.525424)"/>
</g>
</svg>
